# xmcd CD database file
#
# Track frame offsets:
#	150
#	21170
#	41980
#	71947
#	93282
#	120222
#	146707
#	165527
#	184567
#	206775
#	238177
#	256105
#	278180
#
# Disc length: 3971 seconds
#
# Revision: 0
# Processed by: cddbd v1.4PL0 Copyright (c) Steve Scherf et al.
# Submitted via: CDex 1.50beta9
#
DISCID=bb0f810d
DTITLE=Rhett Tyler and Early Warning - My Passion
DYEAR=1997
DGENRE=Blues
TTITLE0=All Your Love
TTITLE1=Robin Hood
TTITLE2=My Passion
TTITLE3=Train Song
TTITLE4=Sweet Memories
TTITLE5=Hear My Angel
TTITLE6=Be Careful With A Fool
TTITLE7=Love In Vain
TTITLE8=Carry On The Light
TTITLE9=Cold Wind Blowin´
TTITLE10=Poor Boy
TTITLE11=Right As Rain
TTITLE12=Walkin´ In The Spirit
EXTD=YEAR: 1997
EXTT0=
EXTT1=
EXTT2=
EXTT3=
EXTT4=
EXTT5=
EXTT6=
EXTT7=
EXTT8=
EXTT9=
EXTT10=
EXTT11=
EXTT12=
PLAYORDER=
